<svg width="24.000000" height="24.000000" viewBox="0 0 24 24" fill="none" xmlns="http://www.w3.org/2000/svg" xmlns:xlink="http://www.w3.org/1999/xlink">
	<desc>
			Created with Pixso.
	</desc>
	<defs/>
	<path id="Shape" d="M12 0C8.74097 0 8.33301 0.013916 7.05298 0.0720215C2.69495 0.271973 0.272949 2.68994 0.072998 7.052C0.0140381 8.33301 0 8.74097 0 12C0 15.259 0.0140381 15.668 0.0720215 16.948C0.271973 21.3059 2.68994 23.728 7.052 23.928C8.33301 23.9861 8.74097 24 12 24C15.259 24 15.668 23.9861 16.948 23.928C21.302 23.728 23.73 21.3101 23.927 16.948C23.986 15.668 24 15.259 24 12C24 8.74097 23.986 8.33301 23.928 7.05298C23.7321 2.69897 21.311 0.272949 16.949 0.072998C15.668 0.013916 15.259 0 12 0ZM16.85 2.23291C15.584 2.17505 15.204 2.16309 12 2.16309C8.79602 2.16309 8.41699 2.17505 7.151 2.23193C3.896 2.37988 2.38098 3.92407 2.23206 7.15088C2.17505 8.41699 2.16199 8.7959 2.16199 12C2.16199 15.2051 2.17395 15.584 2.23206 16.8491C2.38 20.0701 3.89099 21.6201 7.151 21.769C8.41602 21.8269 8.79602 21.8391 12 21.8391C15.2061 21.8391 15.584 21.8269 16.85 21.769C20.105 21.6211 21.62 20.075 21.769 16.8501C21.826 15.585 21.838 15.2061 21.838 12.001C21.838 8.79712 21.827 8.41699 21.769 7.1521C21.621 3.92407 20.1021 2.3811 16.85 2.23291ZM16.965 5.59497C16.965 4.80005 17.61 4.15503 18.406 4.15503C19.201 4.15503 19.845 4.80005 19.845 5.59497C19.845 6.38989 19.201 7.03491 18.406 7.03491C17.61 7.03491 16.965 6.38989 16.965 5.59497ZM5.83801 12C5.83801 8.59692 8.59705 5.83789 12 5.83789C15.403 5.83789 18.162 8.59692 18.162 12C18.162 15.4041 15.403 18.1631 12 18.1631C8.59705 18.1631 5.83801 15.4031 5.83801 12ZM12 16C9.79102 16 8 14.21 8 12C8 9.79102 9.79102 8 12 8C14.209 8 16 9.79102 16 12C16 14.21 14.209 16 12 16Z" clip-rule="evenodd" fill="#FFFFFF" fill-opacity="1.000000" fill-rule="evenodd"/>
</svg>
