<svg width="143.000000" height="25.000000" viewBox="0 0 143 25" fill="none" xmlns="http://www.w3.org/2000/svg" xmlns:xlink="http://www.w3.org/1999/xlink">
	<desc>
			Created with Pixso.
	</desc>
	<defs/>
	<path id="audiophile" d="M7.36255 20.3849C8.99365 20.3849 10.4497 19.8477 11.5996 18.9153L12.0137 19.9093L15.7527 19.9093L15.7527 5.85315L12.1479 5.85291L11.6531 6.93982C10.4937 5.98218 9.01636 5.42932 7.36255 5.42932C3.06909 5.42932 0 8.52771 0 12.881C0 17.2493 3.06909 20.3849 7.36255 20.3849ZM8.00928 16.098C9.82104 16.098 11.1526 14.7278 11.1526 12.8921C11.1526 11.0677 9.82104 9.69751 8.00928 9.69751C6.18677 9.69751 4.86621 11.0677 4.86621 12.8921C4.86621 14.7278 6.19775 16.098 8.00928 16.098ZM25.5439 20.3849C29.6917 20.3849 32.4541 17.823 32.4541 13.8899L32.4541 5.86792L27.6177 5.86792L27.6177 13.6793C27.6177 15.1482 26.8359 16.0355 25.5439 16.0355C24.2517 16.0355 23.4548 15.163 23.4548 13.6793L23.4548 5.86792L18.6184 5.86792L18.6184 13.8899C18.6184 17.823 21.396 20.3849 25.5439 20.3849ZM41.8721 20.3997C43.5076 20.3997 44.9648 19.8429 46.1074 18.8804L46.5635 19.9242L50.1426 19.9242L50.1426 0.792114L45.3611 0.792114L45.3611 6.38306C44.3547 5.75732 43.1685 5.40723 41.8721 5.40723C37.5635 5.40723 34.4944 8.52771 34.4944 12.896C34.4944 17.2644 37.5635 20.3997 41.8721 20.3997ZM42.519 16.1128C44.3306 16.1128 45.6621 14.7317 45.6621 12.8964C45.6621 11.0607 44.3306 9.67957 42.519 9.67957C40.7075 9.67957 39.3757 11.0607 39.3757 12.8964C39.3757 14.7317 40.7075 16.1128 42.519 16.1128ZM57.9756 4.10889L57.9756 0L53.2131 0L53.2131 4.10889L57.9756 4.10889ZM58.0127 19.9238L58.0127 5.86768L53.1763 5.86768L53.1763 19.9238L58.0127 19.9238ZM68.1096 20.3849C72.6726 20.3849 75.9822 17.2384 75.9822 12.896C75.9822 8.53894 72.6726 5.40747 68.1096 5.40747C63.5315 5.40747 60.2371 8.53894 60.2371 12.896C60.2371 17.2384 63.5315 20.3849 68.1096 20.3849ZM68.1096 16.0358C69.873 16.0358 71.1377 14.7549 71.1377 12.8966C71.1377 11.0492 69.873 9.75708 68.1096 9.75708C66.3459 9.75708 65.0813 11.0381 65.0813 12.8964C65.0813 14.7546 66.3459 16.0355 68.1096 16.0358ZM82.9978 25L82.9978 19.4663C83.9888 20.0654 85.1511 20.3997 86.4209 20.3997C90.7144 20.3997 93.7834 17.2754 93.7834 12.896C93.7834 8.51672 90.7144 5.40723 86.4209 5.40723C84.7522 5.40723 83.2661 5.98511 82.1113 6.98462L81.5056 5.86792L78.2166 5.86792L78.2166 25L82.9978 25ZM85.7739 16.1125C87.5742 16.1125 88.917 14.7423 88.917 12.8958C88.917 11.0492 87.5854 9.67896 85.7739 9.67896C83.9624 9.67896 82.6306 11.0492 82.6306 12.8958C82.6306 14.7423 83.9624 16.1125 85.7739 16.1125ZM100.839 19.9242L100.839 12.4181C100.839 10.6143 101.751 9.57458 103.215 9.57458C104.477 9.57458 105.046 10.4011 105.046 12.0222L105.046 19.9242L109.882 19.9242L109.882 11.4597C109.882 7.81628 107.811 5.45227 104.587 5.45227C103.188 5.45227 101.873 5.95935 100.839 6.79285L100.839 0.792114L96.0022 0.792114L96.0022 19.9242L100.839 19.9242ZM117.573 4.10889L117.573 0L112.811 0L112.811 4.10889L117.573 4.10889ZM117.611 19.9238L117.611 5.86768L112.774 5.86768L112.774 19.9238L117.611 19.9238ZM125.489 19.9242L125.489 0.792114L120.653 0.792114L120.653 19.9242L125.489 19.9242ZM135.34 20.3851C138.863 20.3851 141.704 18.3809 142.692 15.1729L137.879 15.1729C137.414 15.9957 136.47 16.4911 135.34 16.4911C133.813 16.4911 132.79 15.6573 132.474 14.045L142.9 14.045C142.963 13.6104 143 13.1868 143 12.7633L143 12.7628C143 8.63965 139.866 5.40747 135.34 5.40747C130.933 5.40747 127.714 8.57605 127.714 12.8854C127.714 17.1796 130.959 20.3851 135.34 20.3851ZM138.236 11.3639C137.811 9.95911 136.8 9.20105 135.34 9.20105C133.931 9.20105 132.95 9.96765 132.559 11.3639L138.236 11.3639Z" clip-rule="evenodd" fill="#FFFFFF" fill-opacity="1.000000" fill-rule="evenodd"/>
</svg>
