<svg width="23.333374" height="20.000122" viewBox="0 0 23.3334 20.0001" fill="none" xmlns="http://www.w3.org/2000/svg" xmlns:xlink="http://www.w3.org/1999/xlink">
	<desc>
			Created with Pixso.
	</desc>
	<defs/>
	<path id="Combined Shape" d="M7.5188 13.1946L7.51782 13.1946C7.1416 13.1954 6.83594 13.491 6.83594 13.8541C6.83594 14.2179 7.1427 14.5139 7.51953 14.5139L19.9154 14.5139C20.293 14.5139 20.599 14.8092 20.599 15.1736C20.599 15.538 20.293 15.8334 19.9154 15.8334L7.51953 15.8334C6.38879 15.8334 5.46875 14.9454 5.46875 13.8541C5.46875 13.0421 5.97839 12.343 6.70496 12.0382C6.57532 11.4756 4.32336 1.69556 4.23682 1.31946L0.683594 1.31946C0.30603 1.31946 0 1.02417 0 0.659668C0 0.295288 0.30603 0 0.683594 0L4.78516 0C5.10559 0 5.38293 0.214722 5.45251 0.516602L5.94116 2.63892L22.6498 2.63892C22.8643 2.63892 23.0664 2.73608 23.1956 2.90137C23.3247 3.06665 23.366 3.28076 23.307 3.47986L20.5726 12.7159C20.4888 12.9991 20.2206 13.1945 19.9154 13.1945L7.52148 13.1945L7.5188 13.1946ZM21.7435 3.95837L19.3997 11.875L8.06787 11.875L6.24487 3.95837L21.7435 3.95837ZM8.75 20.0001C7.60132 20.0001 6.66675 19.0656 6.66675 17.9167C6.66675 16.7681 7.60132 15.8335 8.75 15.8335C9.8988 15.8335 10.8334 16.7681 10.8334 17.9167C10.8334 19.0656 9.8988 20.0001 8.75 20.0001ZM16.6667 17.9167C16.6667 19.0656 17.6013 20.0001 18.75 20.0001C19.8988 20.0001 20.8334 19.0656 20.8334 17.9167C20.8334 16.7681 19.8988 15.8335 18.75 15.8335C17.6013 15.8335 16.6667 16.7681 16.6667 17.9167ZM9.44446 17.9167C9.44446 17.5339 9.13293 17.2223 8.75 17.2223C8.36719 17.2223 8.05554 17.5339 8.05554 17.9167C8.05554 18.2997 8.36719 18.6112 8.75 18.6112C9.13293 18.6112 9.44446 18.2997 9.44446 17.9167ZM18.75 17.2223C19.1329 17.2223 19.4445 17.5339 19.4445 17.9167C19.4445 18.2997 19.1329 18.6112 18.75 18.6112C18.3672 18.6112 18.0555 18.2997 18.0555 17.9167C18.0555 17.5339 18.3672 17.2223 18.75 17.2223Z" clip-rule="evenodd" fill="#FFFFFF" fill-opacity="1.000000" fill-rule="evenodd"/>
</svg>
